<?xml version="1.0" encoding="utf-8"?>
<!-- Generator: Adobe Illustrator 16.0.5, SVG Export Plug-In . SVG Version: 6.00 Build 0)  -->
<!DOCTYPE svg PUBLIC "-//W3C//DTD SVG 1.1//EN" "http://www.w3.org/Graphics/SVG/1.1/DTD/svg11.dtd">
<svg version="1.1" id="Layer_1" xmlns="http://www.w3.org/2000/svg" xmlns:xlink="http://www.w3.org/1999/xlink" x="0px" y="0px"
	 width="213px" height="213px" viewBox="0 0 213 213" enable-background="new 0 0 213 213" xml:space="preserve">
<g>
	<g>
		<path stroke="#111111" stroke-miterlimit="10" d="M106.501,211.5c-57.897,0-105-47.103-105-105c0-57.897,47.103-105,105-105
			c57.896,0,104.999,47.103,104.999,105C211.5,164.397,164.397,211.5,106.501,211.5z M106.501,11.175
			c-52.563,0-95.326,42.763-95.326,95.325s42.763,95.326,95.326,95.326c52.562,0,95.325-42.764,95.325-95.326
			S159.063,11.175,106.501,11.175z"/>
	</g>
	<g>
		<polygon stroke="#111111" stroke-miterlimit="10" points="138.386,125.448 105.482,93.964 74.698,125.341 67.792,118.565 
			105.267,80.369 145.075,118.458 		"/>
	</g>
</g>
</svg>
