<?xml version="1.0" encoding="utf-8"?>
<!-- Generator: Adobe Illustrator 16.0.5, SVG Export Plug-In . SVG Version: 6.00 Build 0)  -->
<!DOCTYPE svg PUBLIC "-//W3C//DTD SVG 1.1//EN" "http://www.w3.org/Graphics/SVG/1.1/DTD/svg11.dtd">
<svg version="1.1" id="Layer_1" xmlns="http://www.w3.org/2000/svg" xmlns:xlink="http://www.w3.org/1999/xlink" x="0px" y="0px"
	 width="881px" height="356px" viewBox="0 0 881 356" enable-background="new 0 0 881 356" xml:space="preserve">
<g>
	<path fill="#111111" d="M880.024,251.893l-11.825-1.806c-141.164-21.454-285.047-32.332-427.671-32.332
		c-142.635,0-286.53,10.878-427.716,32.332l-11.836,1.806V109.101v-74.26l8.749-1.326c142.189-21.599,287.12-32.543,430.77-32.543
		c143.661,0,288.604,10.944,430.781,32.543l8.749,1.326L880.024,251.893L880.024,251.893z M21.561,52.54v56.562v118.875
		c138.411-20.418,279.286-30.771,418.967-30.771c139.67,0,280.544,10.354,418.922,30.771V52.54
		C721.084,31.966,580.188,21.534,440.494,21.534C300.812,21.534,159.933,31.966,21.561,52.54z"/>
	<g>
		<g>
			<g>
				<g>
					<path fill="#111111" d="M175.007,303.795c0-12.204,0-24.419,0-36.623c0.702-0.056,1.415-0.111,2.14-0.178
						c0,12.215,0,24.419,0,36.623C176.422,303.684,175.709,303.739,175.007,303.795z"/>
					<path fill="#111111" d="M175.007,305.835c-0.519,0-1.015-0.212-1.394-0.547c-0.412-0.39-0.663-0.937-0.663-1.493v-36.623
						c0-1.059,0.825-1.949,1.889-2.027c0.713-0.057,1.432-0.123,2.14-0.179c0.562-0.045,1.125,0.155,1.549,0.534
						c0.418,0.391,0.652,0.938,0.652,1.494v36.623c0,1.068-0.819,1.949-1.878,2.039l-2.151,0.166
						C175.102,305.835,175.051,305.835,175.007,305.835z"/>
				</g>
				<g>
					<path fill="#111111" d="M218.818,263.996c0.958-0.066,1.928-0.123,2.892-0.189c5.333,10.743,10.683,21.478,16.016,32.242
						c0-11.089,0-22.167,0-33.246c0.719-0.044,1.438-0.089,2.157-0.121c0,12.215,0,24.407,0,36.61
						c-0.936,0.067-1.895,0.112-2.842,0.179c-5.36-10.744-10.716-21.488-16.065-32.221c0,11.066,0,22.156,0,33.225
						c-0.725,0.045-1.432,0.088-2.156,0.146C218.818,288.415,218.818,276.199,218.818,263.996z"/>
					<path fill="#111111" d="M218.818,302.646c-0.507,0-1.015-0.179-1.394-0.547c-0.401-0.39-0.652-0.912-0.652-1.48v-36.623
						c0-1.07,0.847-1.962,1.917-2.028l2.886-0.19c0.819-0.043,1.588,0.392,1.956,1.127l2.508,5.025
						c3.21,6.465,6.431,12.939,9.641,19.416v-24.543c0-1.068,0.836-1.961,1.928-2.027l2.162-0.135
						c0.546-0.033,1.104,0.168,1.505,0.559c0.418,0.379,0.652,0.914,0.652,1.482c0,12.215,0,24.407,0,36.61
						c0,1.081-0.831,1.974-1.923,2.04l-2.842,0.167c-0.803,0.056-1.594-0.39-1.951-1.126c-4.068-8.158-8.136-16.316-12.193-24.452
						v24.554c0,1.069-0.824,1.973-1.905,2.039l-2.151,0.135C218.907,302.646,218.874,302.646,218.818,302.646z"/>
				</g>
				<g>
					<path fill="#111111" d="M281.677,297.062c0-12.203,0-24.408,0-36.611c2.797-0.145,5.578-0.268,8.37-0.379
						c4.313-0.2,7.479,0.857,9.496,3.121c2.475,2.742,3.7,7.611,3.7,14.621c0,6.899-1.337,11.881-4.012,14.936
						c-2.118,2.452-5.194,3.756-9.184,3.923C287.249,296.807,284.474,296.939,281.677,297.062z M283.833,295.225
						c2.062-0.09,4.141-0.201,6.213-0.289c3.868-0.168,6.67-1.627,8.415-4.381c1.75-2.764,2.625-6.977,2.625-12.648
						c0-5.807-0.792-9.965-2.369-12.416c-1.683-2.619-4.564-3.856-8.671-3.678c-2.073,0.088-4.151,0.188-6.213,0.289
						C283.827,273.135,283.827,284.168,283.833,295.225z"/>
					<path fill="#111111" d="M281.677,299.104c-0.524,0-1.031-0.201-1.416-0.558c-0.401-0.379-0.624-0.925-0.624-1.481v-36.612
						c0-1.093,0.858-1.994,1.939-2.052c2.797-0.121,5.584-0.256,8.381-0.379c4.965-0.211,8.683,1.07,11.112,3.824
						c2.831,3.131,4.212,8.357,4.212,15.971c0,7.479-1.471,12.795-4.502,16.271c-2.497,2.875-6.074,4.436-10.655,4.625
						c-2.363,0.111-4.742,0.223-7.122,0.346l-1.231,0.045C281.743,299.104,281.71,299.104,281.677,299.104z M285.873,264.04
						c0,9.696,0,19.358,0,29.044l4.084-0.189c3.177-0.145,5.4-1.258,6.782-3.442c1.521-2.407,2.312-6.286,2.312-11.546
						c0-6.71-1.12-9.854-2.062-11.324c-1.271-1.982-3.533-2.875-6.866-2.73l-0.947,0.045
						C288.068,263.951,286.981,263.984,285.873,264.04z"/>
				</g>
				<g>
					<path fill="#111111" d="M345.995,258.033c0,8.961,0,17.943,0,26.927c0,5.706,2.675,8.481,8.024,8.349
						c2.597-0.078,4.592-0.882,5.963-2.453c1.359-1.582,2.056-3.688,2.056-6.309c0-8.982,0-17.954,0-26.938
						c0.714-0.012,1.438-0.022,2.162-0.045c0,8.85,0,17.677,0,26.515c0,3.801-1.064,6.644-3.193,8.549
						c-1.75,1.538-4.079,2.34-6.988,2.418c-6.799,0.179-10.187-3.276-10.187-10.442c0-8.838,0-17.676,0-26.515
						C344.557,258.066,345.282,258.044,345.995,258.033z"/>
					<path fill="#111111" d="M353.535,297.086c-3.812,0-6.771-1.081-8.777-3.243c-1.961-2.118-2.959-5.237-2.959-9.239v-26.515
						c0-1.093,0.88-2.006,1.979-2.04l2.15-0.066c0.591-0.01,1.104,0.213,1.494,0.592c0.39,0.39,0.612,0.914,0.612,1.46v26.927
						c0.006,4.604,1.728,6.419,5.93,6.309c2.028-0.057,3.488-0.636,4.469-1.75c1.059-1.203,1.572-2.83,1.566-4.972
						c0-8.981,0-17.954,0-26.938c0-1.104,0.886-2.006,1.989-2.027l2.162-0.057c0.546,0,1.075,0.201,1.471,0.592
						c0.401,0.379,0.619,0.902,0.619,1.449v26.514c0,4.38-1.299,7.77-3.873,10.064c-2.106,1.871-4.904,2.853-8.314,2.941
						C353.886,297.086,353.696,297.086,353.535,297.086z"/>
				</g>
				<g>
					<path fill="#111111" d="M406.825,282.195c0,0.636,0,1.271,0,1.906c0,2.396,0.769,4.356,2.251,5.906
						c1.494,1.526,3.533,2.284,6.097,2.262c2.508-0.011,4.536-0.824,6.13-2.418c1.571-1.604,2.362-3.576,2.362-5.93
						c0-2.229-0.591-3.956-1.805-5.171c-0.948-0.992-2.591-1.872-4.888-2.642c-1.388-0.469-2.774-0.947-4.162-1.416
						c-2.553-0.857-4.392-1.905-5.562-3.164c-1.282-1.428-1.895-3.321-1.895-5.719c0-2.896,0.908-5.248,2.73-6.987
						c1.805-1.738,4.186-2.607,7.088-2.642c6.56-0.045,9.824,3.242,9.83,9.885c-0.714,0-1.442,0.013-2.162,0.013
						c0-5.474-2.491-8.19-7.456-8.158c-2.296,0.022-4.124,0.579-5.461,1.693c-1.604,1.305-2.407,3.3-2.407,5.975
						c0,3.455,1.795,5.784,5.395,7.011c1.816,0.623,3.645,1.236,5.461,1.873c2.541,0.856,4.363,1.938,5.5,3.23
						c1.31,1.472,1.956,3.479,1.956,6.041c0,3.152-1.014,5.65-3.064,7.488c-2.04,1.84-4.568,2.754-7.59,2.787
						c-3.762,0.033-6.587-1.082-8.426-3.365c-1.376-1.649-2.073-3.656-2.073-6.02c0-0.803,0-1.605,0-2.406
						C405.398,282.207,406.117,282.207,406.825,282.195z"/>
					<path fill="#111111" d="M415.011,296.061c-4.33,0-7.64-1.383-9.856-4.112c-1.672-2.017-2.52-4.479-2.52-7.312v-2.406
						c0-1.127,0.902-2.028,2.018-2.041c0.719-0.01,1.448-0.021,2.163-0.021c0.528-0.033,1.075,0.201,1.465,0.58
						c0.379,0.379,0.606,0.914,0.606,1.46v1.884c0,1.86,0.535,3.332,1.666,4.491c1.07,1.125,2.547,1.649,4.521,1.649h0.089
						c1.951-0.012,3.488-0.603,4.681-1.816c1.192-1.215,1.783-2.676,1.783-4.492c0-1.684-0.401-2.908-1.215-3.732
						c-0.507-0.523-1.616-1.305-4.091-2.129l-1.438-0.502c-0.902-0.301-1.811-0.613-2.719-0.914
						c-2.854-0.97-5.004-2.218-6.403-3.723c-1.633-1.816-2.458-4.213-2.458-7.109c0-3.479,1.125-6.319,3.366-8.449
						c2.195-2.116,5.049-3.197,8.487-3.23h0.167c7.551,0,11.719,4.234,11.719,11.936c0,1.115-0.914,2.041-2.028,2.041l-2.173,0.011
						c-0.513,0.012-1.048-0.211-1.438-0.603c-0.391-0.379-0.603-0.901-0.603-1.438c0-3.178-0.652-6.119-5.315-6.119h-0.101
						c-1.783,0.021-3.188,0.436-4.163,1.227c-1.12,0.914-1.666,2.353-1.666,4.402c0,2.562,1.231,4.135,4.019,5.094
						c1.069,0.355,2.146,0.725,3.216,1.08l2.234,0.771c2.863,0.979,5.01,2.272,6.38,3.834c1.633,1.827,2.469,4.323,2.463,7.378
						c0.005,3.744-1.261,6.765-3.734,8.994c-2.396,2.173-5.411,3.299-8.938,3.32h-0.184V296.061z"/>
				</g>
				<g>
					<path fill="#111111" d="M473.528,293.464c0-11.558,0-23.114,0-34.662c-3.254-0.032-6.521-0.065-9.774-0.077
						c0-0.668,0-1.305,0-1.973c7.244,0.055,14.467,0.122,21.7,0.223c0,0.646,0,1.305,0,1.939c-3.255-0.034-6.521-0.066-9.764-0.102
						c0,11.559,0,23.114,0,34.672C474.979,293.475,474.242,293.464,473.528,293.464z"/>
					<path fill="#111111" d="M475.69,295.525c-0.012,0-0.022,0-0.033,0l-2.151-0.022c-1.114-0.011-2.017-0.937-2.017-2.039v-32.655
						c-2.586-0.012-5.172-0.033-7.746-0.056c-1.137,0-2.028-0.914-2.028-2.04v-1.949c0-0.535,0.212-1.06,0.591-1.438
						c0.379-0.392,0.913-0.58,1.46-0.603c6.967,0.045,14.064,0.11,21.723,0.211c1.126,0.012,2.006,0.914,2.006,2.041v1.938
						c0,0.557-0.2,1.08-0.603,1.471c-0.39,0.38-0.913,0.58-1.46,0.58c-2.573-0.034-5.138-0.058-7.713-0.09v32.61
						c0,0.535-0.2,1.06-0.59,1.438C476.75,295.303,476.226,295.525,475.69,295.525z"/>
				</g>
				<g>
					<path fill="#111111" d="M524.707,294.333c0-12.216,0-24.408,0-36.634c3.577,0.1,7.166,0.199,10.755,0.289
						c2.697,0.066,4.859,0.902,6.486,2.496c1.739,1.729,2.607,4.18,2.607,7.355c0,2.497-0.636,4.524-1.905,6.085
						c-1.305,1.685-3.121,2.608-5.438,2.787c0,0.033,0,0.065,0,0.101c2.764,0.233,4.703,1.227,5.795,2.941
						c0.858,1.371,1.293,3.5,1.293,6.342c0,1.281,0,2.563,0,3.846c0,1.938,0.401,3.6,1.227,4.947
						c-0.824-0.021-1.639-0.043-2.451-0.065c-0.636-1.183-0.947-2.854-0.947-5.005c0-1.248,0-2.484,0-3.732
						c0-2.809-0.479-4.859-1.427-6.152c-1.137-1.472-3.1-2.252-5.918-2.317c-2.643-0.078-5.271-0.146-7.902-0.212
						c0,5.662,0,11.322,0,16.974C526.156,294.366,525.432,294.344,524.707,294.333z M526.88,275.652
						c2.285,0.057,4.581,0.123,6.888,0.189c5.751,0.146,8.627-2.519,8.627-8.068c0-2.463-0.636-4.401-1.929-5.817
						c-1.281-1.427-3.054-2.162-5.314-2.24c-2.766-0.065-5.528-0.134-8.271-0.212C526.88,264.889,526.88,270.281,526.88,275.652z"/>
					<path fill="#111111" d="M545.525,296.939c-0.012,0-0.044,0-0.056,0c-0.813-0.021-1.628-0.043-2.44-0.078
						c-0.735-0.01-1.438-0.444-1.771-1.092c-0.779-1.481-1.159-3.433-1.159-5.951c0-1.248,0-2.484,0-3.732
						c0-2.932-0.579-4.303-1.048-4.949c-0.702-0.914-2.174-1.427-4.323-1.482c-1.939-0.055-3.867-0.11-5.818-0.166v14.89
						c0,0.547-0.211,1.082-0.612,1.461c-0.391,0.379-0.914,0.612-1.472,0.579l-2.162-0.057c-1.114-0.021-1.995-0.924-1.995-2.027
						c0-12.216,0-24.408,0-36.634c0-0.548,0.225-1.06,0.613-1.449c0.39-0.401,0.914-0.612,1.481-0.58
						c3.577,0.091,7.166,0.168,10.768,0.279c3.209,0.089,5.851,1.137,7.834,3.075c2.141,2.117,3.231,5.082,3.231,8.815
						c0,2.976-0.791,5.461-2.374,7.378c-0.4,0.535-0.857,1.016-1.358,1.428c0.747,0.558,1.358,1.215,1.861,1.994
						c1.104,1.783,1.615,4.19,1.604,7.457v3.844c0,1.562,0.335,2.865,0.947,3.901c0.391,0.624,0.391,1.438,0.021,2.072
						C546.93,296.551,546.262,296.939,545.525,296.939z M528.908,273.682c1.639,0.033,3.266,0.077,4.915,0.123
						c0.134,0,0.29,0.021,0.413,0c2.149,0,3.723-0.47,4.69-1.416c0.938-0.947,1.416-2.486,1.416-4.615
						c0-1.928-0.469-3.42-1.383-4.445c-0.902-1.003-2.162-1.516-3.867-1.561c-2.071-0.057-4.123-0.111-6.186-0.168L528.908,273.682
						L528.908,273.682z"/>
				</g>
				<g>
					<path fill="#111111" d="M586.373,296.395c0-12.203,0-24.418,0-36.623c0.713,0.033,1.438,0.067,2.162,0.102
						c0,12.204,0,24.408,0,36.611C587.811,296.45,587.086,296.428,586.373,296.395z"/>
					<path fill="#111111" d="M588.535,298.523c-0.033,0-0.078,0-0.102,0l-2.15-0.09c-1.092-0.056-1.95-0.959-1.95-2.039
						c0-12.205,0-24.42,0-36.623c0-0.547,0.224-1.082,0.624-1.472c0.401-0.379,0.959-0.579,1.516-0.567l2.151,0.1
						c1.081,0.045,1.938,0.947,1.938,2.04v36.61c0,0.559-0.223,1.094-0.623,1.473C589.571,298.322,589.059,298.523,588.535,298.523z
						"/>
				</g>
				<g>
					<path fill="#111111" d="M630.708,298.579c0-12.215,0-24.408,0-36.623c5.817,0.323,11.658,0.68,17.476,1.024
						c0,0.646,0,1.305,0,1.951c-5.104-0.312-10.209-0.603-15.323-0.902c0,4.882,0,9.752,0,14.611
						c4.77,0.289,9.528,0.557,14.311,0.846c0,0.658,0,1.293,0,1.951c-4.781-0.302-9.541-0.568-14.311-0.824
						c0,5.359,0,10.755,0,16.138c5.271,0.29,10.531,0.612,15.78,0.925c0,0.646,0,1.305,0,1.939
						C642.667,299.259,636.693,298.902,630.708,298.579z"/>
					<path fill="#111111" d="M648.641,301.666c-0.032,0-0.089,0-0.123,0c-5.448-0.334-11.301-0.68-17.921-1.047
						c-1.093-0.067-1.938-0.959-1.929-2.04v-36.623c-0.011-0.567,0.224-1.093,0.636-1.472c0.401-0.391,0.97-0.603,1.517-0.558
						c5.828,0.323,11.657,0.657,17.486,1.015c1.069,0.066,1.916,0.947,1.916,2.039c0,0.646,0,1.305,0,1.951
						c0,0.567-0.223,1.114-0.635,1.504c-0.412,0.369-0.97,0.559-1.538,0.535c-4.38-0.268-8.76-0.523-13.151-0.779v10.531
						c4.125,0.233,8.26,0.49,12.395,0.726c1.081,0.065,1.917,0.97,1.917,2.038v1.951c0,0.558-0.234,1.104-0.657,1.481
						c-0.4,0.392-0.948,0.591-1.517,0.558c-4.045-0.256-8.091-0.489-12.138-0.713v12.06c4.625,0.268,9.251,0.534,13.876,0.825
						c1.069,0.055,1.917,0.936,1.917,2.027v1.938c0,0.579-0.233,1.126-0.646,1.516C649.666,301.466,649.164,301.666,648.641,301.666
						z"/>
				</g>
				<g>
					<path fill="#111111" d="M689.176,291.066c0,0.646,0,1.271,0,1.906c0,2.396,0.746,4.424,2.229,6.086
						c1.481,1.672,3.511,2.584,6.073,2.774c2.496,0.2,4.504-0.446,6.086-1.906c1.561-1.472,2.352-3.389,2.352-5.739
						c0-2.219-0.612-4.013-1.794-5.328c-0.959-1.059-2.574-2.072-4.859-3.03c-1.382-0.591-2.764-1.17-4.156-1.75
						c-2.52-1.069-4.357-2.296-5.507-3.646c-1.271-1.516-1.895-3.488-1.895-5.873c0-2.908,0.903-5.16,2.72-6.754
						c1.817-1.594,4.146-2.285,7.056-2.072c6.497,0.502,9.739,4.078,9.739,10.711c-0.701-0.057-1.415-0.102-2.117-0.168
						c0-5.461-2.475-8.403-7.444-8.771c-2.273-0.167-4.078,0.233-5.395,1.227c-1.604,1.191-2.406,3.108-2.406,5.783
						c0,3.455,1.771,5.94,5.359,7.457c1.807,0.779,3.622,1.549,5.428,2.317c2.52,1.081,4.348,2.329,5.461,3.7
						c1.305,1.583,1.939,3.645,1.939,6.208c0,3.153-1.003,5.562-3.031,7.222c-2.04,1.672-4.548,2.396-7.533,2.162
						c-3.757-0.277-6.555-1.627-8.403-4.057c-1.35-1.772-2.028-3.846-2.028-6.209c0-0.791,0-1.594,0-2.406
						C687.76,290.967,688.462,291.012,689.176,291.066z"/>
					<path fill="#111111" d="M698.537,305.667c-0.391,0-0.813-0.022-1.227-0.056c-4.336-0.323-7.646-1.95-9.862-4.848
						c-1.628-2.13-2.452-4.638-2.452-7.445v-2.396c0-0.568,0.245-1.125,0.646-1.504c0.425-0.391,0.98-0.58,1.538-0.546
						c0.681,0.056,1.35,0.101,2.006,0.146l0.135,0.021c1.081,0.066,1.905,0.97,1.905,2.039c0,0.636,0,1.26,0,1.895
						c0,1.885,0.558,3.444,1.705,4.727c1.125,1.271,2.663,1.951,4.691,2.105c0.223,0.022,0.457,0.034,0.702,0.034l0,0
						c1.57,0,2.819-0.457,3.812-1.403c1.171-1.07,1.717-2.465,1.717-4.248c0-1.705-0.391-3.008-1.247-3.955
						c-0.535-0.58-1.661-1.473-4.136-2.53c-0.803-0.334-1.583-0.657-2.362-0.992l-1.806-0.758c-2.774-1.192-4.894-2.597-6.253-4.179
						c-1.594-1.939-2.385-4.336-2.385-7.211c0-3.522,1.137-6.31,3.388-8.281c2.24-1.961,5.104-2.831,8.561-2.574
						c7.634,0.591,11.656,4.993,11.656,12.738c0,0.568-0.232,1.115-0.646,1.505c-0.434,0.391-0.98,0.579-1.57,0.534l-2.118-0.178
						c-1.081-0.09-1.895-0.971-1.895-2.029c0-4.424-1.649-6.44-5.517-6.741c-1.763-0.134-3.133,0.146-4.058,0.836
						c-1.048,0.791-1.583,2.129-1.572,4.135c0,2.619,1.315,4.402,4.124,5.604l5.417,2.297c2.863,1.249,4.894,2.631,6.264,4.302
						c1.583,1.929,2.396,4.447,2.396,7.49c0,3.778-1.282,6.731-3.801,8.793C704.177,304.766,701.558,305.667,698.537,305.667z"/>
				</g>
			</g>
			<g>
				<path fill="#111111" d="M393.406,352.989c0-8.815,0-17.609,0-26.414c0.513,0,1.025-0.011,1.549-0.021c0,8.336,0,16.673,0,25.01
					c3.7-0.057,7.389-0.122,11.078-0.146c0,0.457,0,0.925,0,1.395C401.826,352.867,397.619,352.923,393.406,352.989z"/>
				<path fill="#111111" d="M393.406,355.029c-0.546,0-1.059-0.212-1.443-0.592c-0.385-0.39-0.607-0.892-0.607-1.448v-26.414
					c0-1.114,0.892-2.018,2.006-2.039l1.56-0.022c0.535,0,1.081,0.201,1.471,0.592c0.385,0.379,0.603,0.901,0.603,1.448v22.938
					c2.998-0.045,6.007-0.09,9.017-0.123c0.535-0.022,1.075,0.212,1.465,0.602c0.385,0.379,0.607,0.903,0.607,1.449v1.395
					c0,1.125-0.903,2.038-2.029,2.051c-4.207,0.033-8.414,0.1-12.616,0.167C393.429,355.029,393.412,355.029,393.406,355.029z"/>
			</g>
			<g>
				<path fill="#111111" d="M436.583,352.622c0-8.337,0-16.674,0-25.01c-2.34,0-4.692,0-7.033,0.011c0-0.468,0-0.937,0-1.404
					c5.205-0.021,10.421-0.021,15.638-0.021c0,0.469,0,0.937,0,1.416c-2.342,0-4.703,0-7.045,0c0,8.324,0,16.673,0,25.01
					C437.63,352.622,437.105,352.622,436.583,352.622z"/>
				<path fill="#111111" d="M436.583,354.661c-1.125,0-2.029-0.914-2.029-2.039v-22.971c-1.442,0.012-2.863,0.012-4.291,0.012
					h-0.708h-0.006c-0.546,0-1.07-0.212-1.449-0.591c-0.379-0.392-0.612-0.903-0.612-1.449v-1.404c0-1.113,0.914-2.039,2.051-2.039
					c3.951-0.012,7.924-0.021,11.886-0.021h3.762c1.127,0,2.04,0.914,2.04,2.039v1.416c0,0.546-0.212,1.059-0.592,1.438
					c-0.379,0.391-0.901,0.591-1.448,0.591l0,0h-3.526h-1.472v22.981c0,1.125-0.919,2.039-2.045,2.039L436.583,354.661
					L436.583,354.661z"/>
			</g>
			<g>
				<path fill="#111111" d="M473.473,352.777c0-8.793,0-17.609,0-26.413c2.006,0.021,4.035,0.044,6.041,0.077
					c3.12,0.033,5.405,0.914,6.865,2.631c1.783,2.084,2.664,5.64,2.664,10.71c0,4.971-0.959,8.516-2.876,10.6
					c-1.549,1.684-3.767,2.508-6.653,2.463C477.508,352.822,475.479,352.8,473.473,352.777z M475.033,351.529
					c1.493,0.021,2.998,0.045,4.479,0.056c2.81,0.034,4.837-0.902,6.085-2.809c1.261-1.917,1.885-4.938,1.885-9.027
					c0-4.19-0.559-7.211-1.705-9.05c-1.215-1.974-3.299-2.965-6.265-3.009c-1.481-0.013-2.986-0.034-4.479-0.046
					C475.033,335.604,475.033,343.572,475.033,351.529z"/>
				<path fill="#111111" d="M479.703,354.884l-0.212-0.011c-2.019-0.011-4.023-0.033-6.041-0.056
					c-1.114-0.012-2.028-0.914-2.028-2.04v-26.413c0-0.547,0.223-1.07,0.613-1.46c0.39-0.368,0.892-0.568,1.438-0.568
					c0.013,0,0.013,0,0.022,0c2.018,0.011,4.034,0.033,6.052,0.055c3.7,0.045,6.531,1.183,8.394,3.378
					c2.116,2.475,3.143,6.396,3.143,12.015c0,5.551-1.114,9.474-3.433,11.992C485.766,353.837,483.091,354.884,479.703,354.884z
					 M477.084,349.523l2.597,0.021c2.652,0,3.679-1.093,4.214-1.895c0.701-1.07,1.549-3.321,1.549-7.902
					c0-4.714-0.758-6.954-1.394-7.991c-0.523-0.847-1.583-1.982-4.559-2.028l-2.407-0.021V349.523z"/>
			</g>
		</g>
	</g>
	<g>
		<g>
			<path fill="#111111" d="M162.947,156.914c0-22.435,0-44.87,0-67.328c-7.026,16.227-14.042,32.477-21.059,48.749
				c-1.443,0.145-2.881,0.29-4.318,0.435c-7.021-14.867-14.037-29.702-21.053-44.524c0,22.446,0,44.893,0,67.316
				c-1.427,0.167-2.848,0.323-4.263,0.479c0-24.274,0-48.57,0-72.844c2.302-0.234,4.608-0.501,6.916-0.747
				c6.888,14.232,13.775,28.476,20.652,42.741c0.072,0,0.145-0.011,0.212-0.022c6.721-15.615,13.441-31.24,20.162-46.832
				c2.352-0.223,4.681-0.435,7.043-0.646c0,24.274,0,48.56,0,72.833C165.801,156.657,164.374,156.78,162.947,156.914z"/>
			<path fill="#111111" d="M112.254,165.094c-0.758,0-1.482-0.267-2.045-0.78c-0.658-0.591-1.02-1.404-1.02-2.274V89.196
				c0-1.549,1.176-2.864,2.736-3.042l6.91-0.747c1.282-0.145,2.53,0.558,3.087,1.716c5.952,12.282,11.892,24.598,17.843,36.913
				c5.874-13.652,11.747-27.294,17.621-40.914c0.446-1.014,1.404-1.728,2.524-1.828c2.347-0.223,4.698-0.435,7.039-0.658
				c0.858-0.067,1.705,0.223,2.346,0.792c0.629,0.591,1.003,1.404,1.003,2.262v72.833c0,1.583-1.215,2.897-2.792,3.054
				c-1.427,0.123-2.842,0.245-4.274,0.39c-0.869,0.078-1.71-0.201-2.346-0.792c-0.641-0.58-1.003-1.404-1.003-2.262
				c0.005-17.509,0.005-35.018,0.005-52.527c-5.065,11.702-10.131,23.427-15.196,35.163c-0.435,1.014-1.404,1.728-2.508,1.828
				l-4.313,0.424c-1.293,0.134-2.524-0.546-3.076-1.739c-5.071-10.733-10.142-21.454-15.202-32.165v53.664
				c0,1.571-1.181,2.887-2.736,3.054l-4.274,0.457C112.477,165.083,112.36,165.094,112.254,165.094z M138.729,134.044
				c0.234,0.49,0.451,0.969,0.685,1.46l0.374-0.034c0.178-0.423,0.356-0.836,0.535-1.248c0,0-0.017,0-0.022,0
				c-0.101,0.011-0.189,0.022-0.279,0.022C139.57,134.278,139.125,134.2,138.729,134.044z"/>
		</g>
		<g>
			<path fill="#111111" d="M271.612,74.774c7.696-0.423,13.408,2.028,17.158,7.356c4.229,5.829,6.336,15.514,6.336,29.055
				c0,25.087-7.83,37.994-23.494,38.874c-15.737,0.88-23.594-11.123-23.594-36.21C248.019,88.75,255.875,75.677,271.612,74.774z
				 M271.612,78.251c-12.878,0.724-19.309,12.538-19.309,35.308c0,10.967,1.332,19.069,3.984,24.352
				c3.064,6.208,8.169,9.083,15.324,8.671c6.665-0.368,11.546-3.411,14.605-9.139c3.06-5.74,4.598-14.422,4.598-26.046
				C290.815,88.616,284.413,77.527,271.612,78.251z"/>
			<path fill="#111111" d="M270.008,153.169c-8.448,0-14.879-3.544-19.114-10.532c-4.001-6.576-5.935-15.993-5.935-28.788
				c0-13.062,2.134-23.215,6.33-30.192c4.475-7.423,11.257-11.424,20.145-11.925c8.793-0.501,15.469,2.407,19.85,8.637
				c4.625,6.397,6.899,16.484,6.899,30.816c0,26.837-8.894,40.947-26.403,41.928C271.189,153.146,270.587,153.169,270.008,153.169z
				 M272.766,81.271c-0.317,0-0.657,0.022-0.986,0.045c-11.044,0.613-16.411,11.167-16.411,32.243c0,10.42,1.231,18.144,3.661,22.97
				c2.363,4.814,5.952,7.032,11.29,7.032l0,0c0.368,0,0.747-0.011,1.12-0.033c5.584-0.312,9.535-2.775,12.076-7.534
				c2.809-5.261,4.235-13.53,4.235-24.597c0-10.477-1.393-18.356-4.135-23.416C281.119,83.412,277.675,81.271,272.766,81.271z"/>
		</g>
		<g>
			<path fill="#111111" d="M376.8,144.732c0-24.285,0-48.559,0-72.845c5.562-0.123,11.123-0.223,16.69-0.312
				c8.599-0.134,14.896,2.14,18.914,6.788c4.915,5.595,7.367,15.38,7.367,29.312c0,13.742-2.664,23.55-7.975,29.445
				c-4.229,4.737-10.332,7.167-18.306,7.278C387.923,144.498,382.361,144.609,376.8,144.732z M381.102,141.166
				c4.135-0.089,8.258-0.156,12.388-0.234c7.707-0.112,13.302-2.854,16.768-8.226c3.478-5.383,5.216-13.708,5.216-24.987
				c0-11.568-1.561-19.86-4.702-24.854c-3.345-5.338-9.105-7.958-17.281-7.824c-4.129,0.067-8.253,0.145-12.388,0.234
				C381.102,97.231,381.102,119.198,381.102,141.166z"/>
			<path fill="#111111" d="M376.8,147.774c-0.791,0-1.56-0.312-2.14-0.858c-0.58-0.58-0.903-1.36-0.903-2.185V71.887
				c0-1.671,1.31-3.009,2.987-3.054c5.271-0.111,10.733-0.223,16.695-0.334c0.257,0,0.513,0,0.775,0
				c9.111,0,16.01,2.642,20.512,7.857c5.45,6.23,8.114,16.473,8.114,31.318c0,14.656-2.864,24.965-8.76,31.507
				c-4.792,5.35-11.708,8.147-20.552,8.281c-4.937,0.078-10.231,0.189-16.656,0.312C376.845,147.774,376.822,147.774,376.8,147.774z
				 M384.167,78.273v59.771c3.087-0.067,6.174-0.111,9.272-0.156c6.682-0.123,11.34-2.352,14.244-6.843
				c3.138-4.848,4.727-12.706,4.727-23.327c0-10.944-1.416-18.735-4.241-23.226c-2.758-4.414-7.573-6.52-14.639-6.397
				C390.419,78.151,387.293,78.218,384.167,78.273z"/>
		</g>
		<g>
			<path fill="#111111" d="M501.525,144.564c0-24.274,0-48.559,0-72.833c10.721,0.189,21.453,0.457,32.164,0.78
				c0,1.292,0,2.585,0,3.878c-9.283-0.268-18.578-0.513-27.862-0.691c0,9.685,0,19.37,0,29.066
				c8.235,0.134,16.461,0.301,24.697,0.513c0,1.292,0,2.574,0,3.867c-8.236-0.201-16.462-0.379-24.697-0.513
				c0,10.71,0,21.421,0,32.131c9.585,0.201,19.191,0.446,28.788,0.736c0,1.292,0,2.585,0,3.878
				C523.581,145.044,512.548,144.765,501.525,144.564z"/>
			<path fill="#111111" d="M534.615,148.432c-0.033,0-0.067,0-0.09,0c-10.732-0.323-21.855-0.602-33.058-0.813
				c-1.671-0.022-3.009-1.393-3.009-3.054c0-16.183,0-32.376,0-48.559V71.731c0-0.825,0.335-1.605,0.925-2.185
				c0.58-0.58,1.395-0.892,2.207-0.88c10.678,0.212,21.51,0.468,32.198,0.78c1.648,0.056,2.965,1.416,2.965,3.065v3.878
				c0,0.825-0.335,1.616-0.925,2.195c-0.604,0.58-1.404,0.903-2.229,0.87c-8.369-0.256-16.662-0.468-24.708-0.646v22.937
				c7.244,0.145,14.533,0.29,21.699,0.468c1.66,0.044,2.998,1.393,2.998,3.065v3.867c0,0.825-0.335,1.616-0.926,2.185
				c-0.59,0.58-1.394,0.892-2.218,0.869c-7.045-0.167-14.276-0.323-21.555-0.446v26.024c8.592,0.167,17.252,0.401,25.812,0.658
				c1.661,0.056,2.976,1.404,2.976,3.065v3.878c0,0.825-0.346,1.616-0.925,2.184C536.176,148.131,535.406,148.432,534.615,148.432z"
				/>
		</g>
		<g>
			<path fill="#111111" d="M618.281,126.599c0,1.249,0,2.519,0,3.767c0,4.77,1.481,8.783,4.425,12.048
				c2.987,3.254,7.011,5.049,12.104,5.372c4.981,0.323,9.027-0.992,12.172-3.945c3.119-2.942,4.69-6.776,4.69-11.468
				c0-4.414-1.182-7.936-3.577-10.543c-1.896-2.095-5.138-4.068-9.695-5.94c-2.753-1.137-5.507-2.262-8.271-3.366
				c-5.038-2.084-8.716-4.447-11.023-7.1c-2.528-2.998-3.776-6.888-3.776-11.646c0-5.762,1.794-10.276,5.405-13.497
				c3.6-3.232,8.312-4.659,14.075-4.302c13.028,0.825,19.516,7.891,19.516,21.087c-1.426-0.101-2.864-0.201-4.279-0.301
				c0-10.866-4.948-16.673-14.812-17.286c-4.559-0.301-8.169,0.58-10.821,2.597c-3.21,2.385-4.792,6.241-4.792,11.546
				c0,6.877,3.555,11.77,10.721,14.723c3.602,1.482,7.211,2.976,10.812,4.458c5.048,2.084,8.682,4.525,10.922,7.255
				c2.586,3.109,3.89,7.2,3.89,12.304c0,6.264-2.027,11.067-6.085,14.433c-4.046,3.366-9.062,4.837-15.067,4.458
				c-7.469-0.468-13.052-3.065-16.729-7.835c-2.729-3.489-4.09-7.579-4.09-12.282c0-1.583,0-3.188,0-4.792
				C615.417,126.432,616.844,126.521,618.281,126.599z"/>
			<path fill="#111111" d="M636.604,154.373c-0.646,0-1.304-0.022-1.961-0.056c-8.402-0.535-14.777-3.566-18.99-9.05
				c-3.133-3.979-4.727-8.749-4.727-14.132v-4.792c0-0.847,0.346-1.638,0.97-2.207c0.603-0.58,1.415-0.88,2.264-0.836l4.278,0.234
				c1.64,0.101,2.897,1.438,2.897,3.065v3.767c0,4.012,1.204,7.278,3.655,9.997c2.43,2.675,5.694,4.09,10.03,4.38
				c4.091,0.245,7.346-0.769,9.853-3.132c2.508-2.385,3.734-5.395,3.734-9.25c0-3.656-0.914-6.431-2.775-8.47
				c-1.594-1.761-4.491-3.5-8.593-5.183c-2.766-1.125-5.518-2.24-8.271-3.366c-5.551-2.296-9.529-4.871-12.182-7.902
				c-3.021-3.6-4.536-8.181-4.536-13.664c0-6.654,2.162-11.981,6.431-15.792c4.225-3.767,9.719-5.472,16.339-5.06
				c14.634,0.925,22.368,9.273,22.368,24.141c0,0.847-0.346,1.649-0.97,2.24c-0.635,0.569-1.46,0.87-2.307,0.814l-4.28-0.301
				c-1.616-0.1-2.854-1.449-2.854-3.054c0-9.329-3.679-13.72-11.938-14.232c-3.768-0.246-6.742,0.423-8.781,1.973
				c-2.419,1.816-3.59,4.803-3.59,9.116c0,5.628,2.809,9.407,8.828,11.881l0.567,0.245c3.433,1.404,6.844,2.809,10.265,4.224
				c5.473,2.285,9.552,5.026,12.126,8.158c3.01,3.622,4.568,8.426,4.568,14.232c0,7.177-2.418,12.828-7.188,16.773
				C647.66,152.611,642.533,154.373,636.604,154.373z"/>
		</g>
		<g>
			<path fill="#111111" d="M750.451,159.544c0-22.981,0-45.974,0-68.955c-6.453-0.669-12.884-1.282-19.349-1.906
				c0-1.293,0-2.585,0-3.89c14.345,1.382,28.654,2.842,42.941,4.402c0,1.304,0,2.597,0,3.878
				c-6.419-0.691-12.872-1.393-19.303-2.051c0,22.993,0,45.974,0,68.955C753.305,159.822,751.867,159.7,750.451,159.544z"/>
			<path fill="#111111" d="M754.742,163.043c-0.123,0-0.224,0-0.334-0.022l-4.271-0.435c-1.56-0.156-2.752-1.471-2.752-3.042V93.353
				c-5.005-0.491-10.332-1.025-16.551-1.627c-1.594-0.134-2.786-1.46-2.786-3.042v-3.89c0-0.858,0.367-1.672,1.014-2.24
				c0.613-0.591,1.473-0.88,2.329-0.792c14.444,1.371,28.911,2.865,42.998,4.402c1.55,0.167,2.753,1.482,2.753,3.032v3.878
				c0,0.869-0.4,1.705-1.036,2.285c-0.646,0.568-1.505,0.847-2.374,0.758c-5.383-0.59-10.731-1.148-15.947-1.694v65.556
				c0,0.869-0.347,1.694-1.004,2.273C756.213,162.765,755.479,163.043,754.742,163.043z"/>
		</g>
	</g>
</g>
</svg>
