<?xml version="1.0" encoding="utf-8"?>
<!-- Generator: Adobe Illustrator 16.0.5, SVG Export Plug-In . SVG Version: 6.00 Build 0)  -->
<!DOCTYPE svg PUBLIC "-//W3C//DTD SVG 1.1//EN" "http://www.w3.org/Graphics/SVG/1.1/DTD/svg11.dtd">
<svg version="1.1" id="Layer_1" xmlns="http://www.w3.org/2000/svg" xmlns:xlink="http://www.w3.org/1999/xlink" x="0px" y="0px"
	 width="692.809px" height="70.61px" viewBox="0 0 692.809 70.61" enable-background="new 0 0 692.809 70.61" xml:space="preserve">
<g>
	<rect x="7.378" y="6.608" fill="#FF7BAC" width="51.714" height="58.676"/>
	<rect x="61.081" y="6.608" fill="#FBB03B" width="17.403" height="58.676"/>
	<rect x="82.961" y="6.608" fill="#FCEE21" width="530.562" height="58.676"/>
	<polygon fill="#C69C6D" points="663.745,25.735 613.521,6.608 613.523,65.283 663.745,45.625 	"/>
	<path fill="#333333" d="M689.795,30.237l-24.432-10.471c-0.012-0.005-0.022-0.009-0.03-0.015l-45.152-19.35
		c-0.014-0.007-0.026-0.007-0.039-0.013c-0.216-0.09-0.437-0.148-0.66-0.206c-0.094-0.026-0.186-0.064-0.281-0.084
		c-0.311-0.062-0.623-0.094-0.937-0.095C618.247,0.006,618.234,0,618.222,0H16.908C7.586,0,0,7.584,0.002,16.908L0,53.704
		c0,9.32,7.584,16.904,16.908,16.906l42.294-0.002c0.001,0.002,0.004,0.002,0.004,0c0.003,0,0.003,0.002,0.005,0h19.352
		c0,0,0.002,0,0.005,0c0.001,0,0.003,0.002,0.003,0h539.651c0.692,0,1.379-0.144,2.013-0.424l45.106-19.975
		c0.005-0.003,0.008-0.005,0.011-0.006l24.497-10.849c1.81-0.802,2.972-2.6,2.96-4.578C692.797,32.8,691.613,31.016,689.795,30.237z
		 M54.233,60.665l-37.325,0.001c-3.839-0.003-6.963-3.125-6.963-6.962V16.908c0-3.84,3.124-6.962,6.963-6.962h37.327L54.233,60.665z
		 M73.595,60.665l-9.414,0.001V9.946h9.412L73.595,60.665z M605.427,40.641l6.1,6.101l-6.261,6.26
		c-0.933,0.933-1.456,2.199-1.456,3.518c-0.001,1.318,0.521,2.582,1.456,3.515l0.631,0.632L83.54,60.663l-0.002-10.067
		l105.417,0.002c2.747-0.002,4.972-2.227,4.972-4.972c0.001-2.747-2.225-4.974-4.972-4.973H83.54l-0.002-12.433l67.189,0.001
		c2.747,0,4.972-2.228,4.972-4.973c0.002-2.746-2.225-4.973-4.972-4.973H83.54l-0.002-8.33h522.68l-2.612,2.608
		c-1.943,1.942-1.94,5.092,0.001,7.034l7.92,7.92l-6.1,6.101C603.483,35.55,603.484,38.699,605.427,40.641z M658.438,42.391
		L619.104,59.81l-3.291-3.293l6.262-6.258c1.94-1.94,1.942-5.09,0-7.032l-6.101-6.101l6.1-6.1c1.941-1.943,1.941-5.091,0-7.034
		l-7.92-7.919l5.202-5.204l39.082,16.751V42.391z"/>
</g>
</svg>
